HIERARCHY
ROOT Hips
{
	OFFSET -3.958830 18.904000 13.208200
	CHANNELS 6 Xposition Yposition Zposition Zrotation Yrotation Xrotation 
	JOINT LHipJoint
	{
		OFFSET 0.000000 0.000000 0.000000
		CHANNELS 3 Zrotation Yrotation Xrotation
		JOINT LeftUpLeg
		{
			OFFSET 1.800000 -1.400000 0.085000
			CHANNELS 3 Zrotation Yrotation Xrotation
			JOINT LeftLeg
			{
				OFFSET 2.215000 -6.000000 0.000000
				CHANNELS 3 Zrotation Yrotation Xrotation
				JOINT LeftFoot
				{
					OFFSET 2.500000 -6.900000 0.000000
					CHANNELS 3 Zrotation Yrotation Xrotation
					JOINT LeftToeBase
					{
						OFFSET 0.200000 -0.500000 1.950000
						CHANNELS 3 Zrotation Yrotation Xrotation
						End Site
						{
							OFFSET 0.000000 0.000000 0.000000
						}
					}
				}
			}
		}
	}
	JOINT RHipJoint
	{
		OFFSET 0.000000 0.000000 0.000000
		CHANNELS 3 Zrotation Yrotation Xrotation
		JOINT RightUpLeg
		{
			OFFSET -1.800000 -1.400000 0.085000
			CHANNELS 3 Zrotation Yrotation Xrotation
			JOINT RightLeg
			{
				OFFSET -2.215000 -6.000000 0.000000
				CHANNELS 3 Zrotation Yrotation Xrotation
				JOINT RightFoot
				{
					OFFSET -2.500000 -6.900000 0.000000
					CHANNELS 3 Zrotation Yrotation Xrotation
					JOINT RightToeBase
					{
						OFFSET -0.200000 -0.500000 1.950000
						CHANNELS 3 Zrotation Yrotation Xrotation
						End Site
						{
							OFFSET 0.000000 0.000000 0.000000
						}
					}
				}
			}
		}
	}
	JOINT LowerBack
	{
		OFFSET 0.000000 0.000000 0.000000
		CHANNELS 3 Zrotation Yrotation Xrotation
		JOINT Spine
		{
			OFFSET -0.087000 1.940000 -0.288900
			CHANNELS 3 Zrotation Yrotation Xrotation
			JOINT Spine1
			{
				OFFSET 0.000000 1.950000 0.060000
				CHANNELS 3 Zrotation Yrotation Xrotation
				JOINT Neck
				{
					OFFSET 0.000000 0.000000 0.000000
					CHANNELS 3 Zrotation Yrotation Xrotation
					JOINT Neck1
					{
						OFFSET 0.000000 1.600000 0.340000
						CHANNELS 3 Zrotation Yrotation Xrotation
						JOINT Head
						{
							OFFSET 0.000000 1.667000 -0.240000
							CHANNELS 3 Zrotation Yrotation Xrotation
							End Site
							{
								OFFSET 0.000000 0.000000 0.000000
							}
						}
					}
				}
				JOINT LeftShoulder
				{
					OFFSET 0.000000 0.000000 0.000000
					CHANNELS 3 Zrotation Yrotation Xrotation
					JOINT LeftArm
					{
						OFFSET 2.700000 1.550000 -0.730000
						CHANNELS 3 Zrotation Yrotation Xrotation
						JOINT LeftForeArm
						{
							OFFSET 5.450000 0.000000 0.000000
							CHANNELS 3 Zrotation Yrotation Xrotation
							JOINT LeftHand
							{
								OFFSET 3.450000 0.000000 0.000000
								CHANNELS 3 Zrotation Yrotation Xrotation
								JOINT LeftHandIndex1
								{
									OFFSET 0.750000 0.000000 0.000000
									CHANNELS 3 Zrotation Yrotation Xrotation
									End Site
									{
										OFFSET 0.000000 0.000000 0.000000
									}
								}
							}
						}
					}
				}
				JOINT RightShoulder
				{
					OFFSET 0.000000 0.000000 0.000000
					CHANNELS 3 Zrotation Yrotation Xrotation
					JOINT RightArm
					{
						OFFSET -2.700000 1.550000 -0.730000
						CHANNELS 3 Zrotation Yrotation Xrotation
						JOINT RightForeArm
						{
							OFFSET -5.450000 0.000000 0.000000
							CHANNELS 3 Zrotation Yrotation Xrotation
							JOINT RightHand
							{
								OFFSET -3.450000 0.000000 0.000000
								CHANNELS 3 Zrotation Yrotation Xrotation
								JOINT RightHandIndex1
								{
									OFFSET -0.750000 0.000000 0.000000
									CHANNELS 3 Zrotation Yrotation Xrotation
									End Site
									{
										OFFSET 0.000000 0.000000 0.000000
									}
								}
							}
						}
					}
				}
			}
		}
	}
}
MOTION
Frames: 8
Frame Time: 0.016667
1.149610 17.426350 -0.578780 -5.346708 -25.362473 -6.148535 -15.152224 13.524581 3.223350 5.330515 -2.558350 -26.172614 -0.039316 10.154195 43.449170 0.121810 7.801514 1.822502 0.575400 0.050360 0.383510 18.141253 -10.163671 3.296601 -23.633416 4.834090 -19.840055 20.845111 -9.734315 20.620135 -0.489703 -5.389702 2.605079 -0.036320 0.229450 0.309850 -3.215603 -2.908526 -8.077159 8.787718 -0.001687 25.214642 3.022966 1.780491 5.575421 1.179783 -8.997559 -10.837810 -19.318695 13.370589 37.146374 0.369560 7.908110 -7.095230 -5.663131 2.927502 5.903979 -29.298036 30.884335 -10.971678 -17.737426 14.713532 -6.259805 -3.901314 2.713295 0.672750 0.071780 -0.029830 0.310080 3.814765 7.057254 3.125135 13.480377 -6.095592 -15.110969 -42.552703 79.403527 -31.100282 1.294706 -0.951582 -0.110870 0.112700 -0.068570 -0.266310 
1.210400 17.529250 -0.609020 -5.684128 -25.724317 -6.208351 -15.094165 13.469423 3.173574 4.355434 -2.320661 -26.688007 1.208298 9.506757 43.019160 0.047240 7.610258 1.904957 0.521680 -0.031220 0.372740 18.189746 -10.242357 3.380374 -23.351409 5.454726 -19.644047 21.677323 -10.046908 21.295663 -0.509607 -5.551267 2.554974 -0.068780 0.257170 0.308210 -3.390976 -2.594063 -8.054153 10.647589 0.432116 25.414047 2.084083 2.603390 6.287362 1.633444 -9.394173 -11.103631 -20.204847 12.553006 37.313862 -1.579850 7.284660 -7.318400 -5.985683 2.251405 6.098492 -28.312899 31.884057 -11.013723 -18.051358 12.843115 -6.208524 -3.910329 2.650451 0.689750 0.086210 -0.047810 0.286470 3.130876 8.248571 3.280103 11.615104 -5.525301 -15.067431 -49.126953 78.892758 -34.796916 1.195824 -0.627944 -0.147100 0.149240 -0.022740 -0.280050 
1.343910 17.828570 -0.661630 -4.925560 -26.022212 -8.593301 -15.039075 13.573983 3.018179 0.323947 -1.874684 -25.935017 5.954833 7.152139 42.302749 -0.066434 6.998509 2.131086 0.499950 -0.072550 0.345590 18.206173 -10.320840 3.549521 -23.912103 6.657952 -17.682508 24.175776 -11.112461 23.215197 -0.669372 -6.094306 2.371621 -0.100660 0.248080 0.278360 -3.495095 -2.487660 -8.033272 11.880783 1.297853 28.666369 0.890189 4.227145 6.626124 2.148929 -10.992115 -12.412243 -25.194319 13.260382 39.382255 0.419680 4.552050 -9.846830 -5.427682 0.956103 6.866093 -29.449646 33.267221 -11.998726 -18.186014 11.235371 -6.161687 -3.816695 2.531174 0.799470 0.003630 -0.007640 0.274540 1.703680 11.550371 4.005902 7.277413 -4.201967 -14.716045 -70.522650 77.760536 -47.370814 0.742809 0.828680 -0.178160 0.224330 0.020020 -0.277250 
1.491530 18.150950 -0.738380 -3.155865 -26.661697 -12.608826 -15.056851 13.692473 2.976740 -4.722891 -1.116015 -24.861406 11.517001 5.135653 42.973757 -0.044909 6.846044 2.211367 0.465710 -0.132470 0.342540 18.166652 -10.286343 3.650955 -24.321564 8.400392 -15.143612 26.495218 -12.381905 26.355361 -0.877752 -6.719291 2.198888 -0.151260 0.193480 0.182860 -3.410389 -2.624838 -8.049696 11.952790 2.747310 34.838325 -0.943835 6.877057 6.720874 3.031104 -11.615210 -15.260198 -29.249095 14.819588 42.022444 3.072010 2.835390 -12.654890 -3.709640 0.343446 6.887998 -31.134968 32.716374 -12.754655 -16.880675 11.313300 -5.813387 -3.720570 2.305387 0.957480 -0.128200 0.052280 0.260070 -1.365427 13.848020 8.159727 8.803793 -4.300870 -12.823957 -90.049305 66.919868 -58.206547 0.919112 1.051340 -0.243960 0.323370 0.037390 -0.306230 
1.657540 18.460430 -0.847350 -2.231281 -25.747144 -16.510219 -15.012659 13.472204 2.982552 -9.972721 -0.154009 -24.413803 17.002602 3.558891 45.324435 0.128054 7.284495 2.078592 0.450710 -0.155230 0.326840 18.237223 -10.215885 3.849734 -24.075803 10.949331 -12.647526 30.449538 -13.737195 28.788921 -1.113436 -7.515759 1.956913 -0.169060 0.167610 0.142420 -3.687861 -2.151606 -8.047108 14.448162 2.741447 42.037918 -4.908294 8.758032 6.466944 3.757798 -12.169800 -16.299921 -30.506794 14.432734 42.068024 5.145340 0.401020 -14.972290 -2.628016 0.434247 6.349452 -30.417380 31.827507 -12.960111 -18.108388 10.569871 -6.101358 -3.642779 2.253723 0.996010 -0.192140 0.060090 0.245990 -4.041839 15.443135 9.936862 7.989486 -3.178672 -12.666518 -96.964422 57.966550 -62.038405 1.472125 -0.045484 -0.256060 0.348250 0.048260 -0.302240 
1.839190 18.740770 -0.932820 -1.604738 -23.980421 -19.774691 -14.952037 12.983231 3.242001 -17.817971 0.702506 -23.285596 25.940879 0.189338 43.685982 0.294417 7.536952 2.050333 0.416730 -0.161570 0.241490 18.364895 -10.170968 3.965880 -22.837398 13.474632 -11.267364 33.003836 -14.833783 31.763213 -1.301396 -8.177765 1.796415 -0.163280 0.220370 0.096470 -4.091396 -1.314728 -8.091920 18.413385 1.719366 48.144593 -9.425572 9.604540 6.823045 4.468075 -13.010492 -16.404726 -32.210205 13.181698 41.108958 7.602820 -3.481570 -17.824300 -1.937692 0.984790 5.470493 -29.776199 28.225515 -11.982957 -18.198477 10.583201 -5.982788 -3.623783 2.188160 0.989670 -0.209080 0.032490 0.265150 -6.438113 16.191424 10.279792 6.458831 -3.712500 -14.045078 -100.614155 52.256770 -62.101322 1.693596 -0.579438 -0.279920 0.432580 0.080340 -0.255490 
1.990960 18.990590 -1.017810 -0.933543 -32.464701 -22.282494 -14.812378 13.171932 2.615187 -18.368778 4.631095 -28.886252 29.000435 0.965575 46.614323 0.360646 8.266230 1.756177 0.450910 -0.117800 0.266360 18.419300 -10.587515 4.424090 -19.738675 18.910486 -10.810327 33.889519 -14.703381 35.952994 -1.468071 -8.667703 1.657618 -0.108390 0.196460 0.069980 -4.698428 0.171312 -7.800951 23.561654 3.608821 52.766499 -14.239322 14.780028 8.164383 5.503968 -13.391475 -16.433693 -32.745123 12.303696 41.801351 7.218630 -5.419490 -20.328220 -2.435913 1.810592 3.989943 -27.817761 24.460717 -10.661900 -21.135246 14.257267 -7.284950 -3.602939 2.087256 1.005240 -0.234260 0.034450 0.253040 -9.019435 18.020022 9.839514 4.711151 -0.990325 -16.658513 -98.310363 49.509318 -56.047395 1.867578 -0.809886 -0.299030 0.476410 0.083980 -0.265320 
2.171830 19.198410 -1.091120 -0.668967 -37.547368 -23.033674 -14.783560 13.143753 2.240552 -22.246681 6.861439 -36.030034 35.968458 -0.508039 46.983422 0.531629 9.015139 1.451060 0.532270 -0.024320 0.319920 18.427537 -10.706830 4.875652 -17.972050 23.444441 -9.427452 37.935530 -14.304135 35.583721 -1.656314 -8.921828 1.580178 -0.065560 0.099260 0.061370 -5.288121 1.471072 -7.694921 28.536263 3.929263 55.943787 -19.537595 17.912347 8.829206 7.059094 -13.353346 -17.507179 -33.849811 12.136874 43.783581 7.532500 -6.839530 -23.042490 -3.635666 0.845144 3.371043 -26.365280 22.451749 -10.085563 -24.523194 17.765322 -9.027626 -3.494174 2.087552 1.046090 -0.308940 0.092370 0.253180 -11.578163 20.494705 9.310670 3.448175 0.388825 -20.043862 -97.056354 48.213007 -51.528683 2.154107 -0.991446 -0.262450 0.457140 0.040920 -0.274690 
